<svg width="21" height="21" viewBox="0 0 21 21" fill="none" xmlns="http://www.w3.org/2000/svg">
<path d="M6.01545 0H14.7275C18.0463 0 20.7429 2.69658 20.7429 6.01545V14.7275C20.7429 16.3229 20.1092 17.8529 18.981 18.981C17.8529 20.1092 16.3229 20.7429 14.7275 20.7429H6.01545C2.69658 20.7429 0 18.0463 0 14.7275V6.01545C0 4.42005 0.633769 2.89 1.76188 1.76188C2.89 0.633769 4.42005 0 6.01545 0ZM5.80802 2.07429C4.81777 2.07429 3.86808 2.46767 3.16788 3.16788C2.46767 3.86808 2.07429 4.81777 2.07429 5.80802V14.9349C2.07429 16.9988 3.7441 18.6686 5.80802 18.6686H14.9349C15.9251 18.6686 16.8748 18.2753 17.575 17.575C18.2753 16.8748 18.6686 15.9251 18.6686 14.9349V5.80802C18.6686 3.7441 16.9988 2.07429 14.9349 2.07429H5.80802ZM15.8165 3.63001C16.1603 3.63001 16.4901 3.7666 16.7332 4.00973C16.9763 4.25286 17.1129 4.58261 17.1129 4.92644C17.1129 5.27028 16.9763 5.60003 16.7332 5.84316C16.4901 6.08629 16.1603 6.22288 15.8165 6.22288C15.4726 6.22288 15.1429 6.08629 14.8998 5.84316C14.6566 5.60003 14.52 5.27028 14.52 4.92644C14.52 4.58261 14.6566 4.25286 14.8998 4.00973C15.1429 3.7666 15.4726 3.63001 15.8165 3.63001ZM10.3715 5.18573C11.7468 5.18573 13.0658 5.73208 14.0383 6.7046C15.0108 7.67711 15.5572 8.99612 15.5572 10.3715C15.5572 11.7468 15.0108 13.0658 14.0383 14.0383C13.0658 15.0108 11.7468 15.5572 10.3715 15.5572C8.99612 15.5572 7.67711 15.0108 6.7046 14.0383C5.73208 13.0658 5.18573 11.7468 5.18573 10.3715C5.18573 8.99612 5.73208 7.67711 6.7046 6.7046C7.67711 5.73208 8.99612 5.18573 10.3715 5.18573ZM10.3715 7.26002C9.54626 7.26002 8.75485 7.58783 8.17134 8.17134C7.58783 8.75485 7.26002 9.54626 7.26002 10.3715C7.26002 11.1967 7.58783 11.9881 8.17134 12.5716C8.75485 13.1551 9.54626 13.4829 10.3715 13.4829C11.1967 13.4829 11.9881 13.1551 12.5716 12.5716C13.1551 11.9881 13.4829 11.1967 13.4829 10.3715C13.4829 9.54626 13.1551 8.75485 12.5716 8.17134C11.9881 7.58783 11.1967 7.26002 10.3715 7.26002Z" fill="#E6F4FD" fill-opacity="0.8"/>
</svg>
